<?xml version="1.0" encoding="utf-8"?>
<!-- Generator: Adobe Illustrator 18.1.1, SVG Export Plug-In . SVG Version: 6.00 Build 0)  -->
<svg version="1.1" xmlns="http://www.w3.org/2000/svg" xmlns:xlink="http://www.w3.org/1999/xlink" x="0px" y="0px"
	 viewBox="-516 698.2 45.8 45.8" enable-background="new -516 698.2 45.8 45.8" xml:space="preserve">
<g id="Layer_2" display="none">
	<rect x="-526" y="686.5" display="inline" fill="#AEB536" width="78.8" height="67.2"/>
</g>
<g id="Capa_1">
	<g>
		<g>
			<path fill="none" stroke="#FFFFFF" stroke-miterlimit="10" d="M-507.1,713.9c2-3.1,5.2-5.4,8.9-6.3c0.3-0.1,0.5-0.3,0.6-0.5
				c0.1-0.3,0.1-0.6-0.1-0.8c-1.2-1.9-3.3-3.1-5.7-3.1c-3.7,0-6.7,3-6.7,6.7c0,1.6,0.5,3,1.5,4.2c0.2,0.2,0.5,0.4,0.8,0.3
				S-507.3,714.2-507.1,713.9z"/>
			<path fill="none" stroke="#FFFFFF" stroke-miterlimit="10" d="M-482.9,703.1c-2.4,0-4.5,1.2-5.7,3.1c-0.2,0.2-0.2,0.6-0.1,0.8
				c0.1,0.3,0.3,0.5,0.6,0.5c3.7,0.9,6.9,3.1,8.9,6.2c0.2,0.2,0.4,0.4,0.7,0.4c0.3,0,0.6-0.1,0.8-0.4c0.9-1.1,1.4-2.5,1.4-4.1
				C-476.2,706.1-479.2,703.1-482.9,703.1z"/>
			<path fill="none" stroke="#FFFFFF" stroke-miterlimit="10" d="M-478.3,723.7c0-2.6-0.7-5-1.8-7.1c-2.2-3.9-6.1-6.7-10.7-7.5
				c-0.7-0.1-1.5-0.2-2.2-0.2c-0.8,0-1.6,0.1-2.3,0.2c-4.6,0.7-8.5,3.6-10.6,7.5c-1.2,2.1-1.8,4.5-1.8,7.1c0,4.4,1.9,8.3,5,11
				l-1.2,1.8c-0.5,0.8-0.4,1.8,0.4,2.3c0.3,0.2,0.6,0.3,1,0.3c0.5,0,1-0.2,1.4-0.7l1.2-1.8c2.1,1.1,4.5,1.8,7.1,1.8
				c2.6,0,5-0.7,7.1-1.8l1.2,1.8c0.3,0.5,0.8,0.7,1.4,0.7c0.3,0,0.7-0.1,1-0.3c0.8-0.5,0.9-1.6,0.4-2.3l-1.2-1.8
				C-480.2,732-478.3,728.1-478.3,723.7z M-493.1,734.3c-5.9,0-10.7-4.8-10.7-10.7c0-1.8,0.5-3.6,1.3-5.1c1.6-2.9,4.4-4.9,7.7-5.5
				c0.5-0.1,1.1-0.1,1.6-0.1c0.5,0,1,0.1,1.5,0.1c3.4,0.5,6.2,2.6,7.8,5.4c0.8,1.5,1.3,3.2,1.3,5.1
				C-482.4,729.5-487.2,734.3-493.1,734.3z"/>
			<path fill="none" stroke="#FFFFFF" stroke-miterlimit="10" d="M-487.1,726.2l-4.1-2.5c-0.1-0.5-0.3-0.9-0.7-1.2l0.2-5.1
				c0-0.7-0.5-1.2-1.1-1.2c-0.6,0-1.2,0.5-1.2,1.1l-0.2,5.1c-0.5,0.4-0.8,0.9-0.8,1.6c0,1.1,0.9,2,2,2c0.3,0,0.6-0.1,0.9-0.2
				l3.9,2.4c0.2,0.1,0.4,0.2,0.6,0.2c0.4,0,0.8-0.2,1-0.6C-486.4,727.2-486.5,726.5-487.1,726.2z"/>
		</g>
	</g>
</g>
</svg>
