<?xml version="1.0" encoding="utf-8"?>
<!-- Generator: Adobe Illustrator 18.1.1, SVG Export Plug-In . SVG Version: 6.00 Build 0)  -->
<svg version="1.1" id="Layer_1" xmlns="http://www.w3.org/2000/svg" xmlns:xlink="http://www.w3.org/1999/xlink" x="0px" y="0px"
	 viewBox="-283 465 512 512" enable-background="new -283 465 512 512" xml:space="preserve">
<g>
	<g>
		<path d="M-75,529c8.8,0,16-7.2,16-16v-32c0-8.8-7.2-16-16-16s-16,7.2-16,16v32C-91,521.8-83.8,529-75,529z M49.4,571.2l22.6-22.6
			c6.2-6.2,6.2-16.4,0-22.6c-6.2-6.2-16.4-6.2-22.6,0l-22.6,22.6c-6.2,6.2-6.2,16.4,0,22.6C33.1,577.4,43.2,577.4,49.4,571.2z
			 M-267,689h32c8.8,0,16-7.2,16-16s-7.2-16-16-16h-32c-8.8,0-16,7.2-16,16S-275.8,689-267,689z M69,673c0,8.8,7.2,16,16,16h32
			c8.8,0,16-7.2,16-16s-7.2-16-16-16H85C76.2,657,69,664.2,69,673z M-199.5,571.2c6.3,6.2,16.4,6.2,22.6,0c6.3-6.2,6.3-16.4,0-22.6
			l-22.6-22.6c-6.2-6.2-16.4-6.2-22.6,0c-6.2,6.2-6.2,16.4,0,22.6L-199.5,571.2z M117,721c-5.3,0-10.6,0.4-15.8,1.1
			c-16.8-22.9-39.1-40.3-64.5-51.5C35.5,610-14.1,561-75,561c-61.8,0-112,50.2-112,112c0,17.4,4.3,33.8,11.5,48.4
			C-235.1,723.9-283,772.8-283,833c0,61.8,50.2,112,112,112c13.7,0,27.1-2.5,39.7-7.3c29,25.2,65.8,39.3,104.3,39.3
			c38.5,0,75.3-14.1,104.3-39.3c12.6,4.8,26,7.3,39.7,7.3c61.8,0,112-50.2,112-112S178.8,721,117,721z M-75,593
			c39.8,0,72.6,29.2,78.7,67.2c-10-2-20.2-3.2-30.7-3.2c-45.9,0-88.5,19.8-118.4,53.2c-5.9-11.2-9.6-23.7-9.6-37.2
			C-155,628.8-119.2,593-75,593z M117,913c-17.1,0-32.9-5.5-45.9-14.7C47.6,926.6,12.6,945-27,945c-39.6,0-74.6-18.4-98.1-46.7
			c-13,9.2-28.8,14.7-45.9,14.7c-44.2,0-80-35.8-80-80s35.8-80,80-80c7.8,0,15.1,1.5,22.1,3.5c2.8,0.8,5.7,1.4,8.3,2.5
			c4.4-8.6,9.9-16.4,16-23.8C-101.2,707.2-66.4,689-27,689c10.1,0,19.8,1.5,29.2,3.7c10.6,2.5,20.5,6.3,29.8,11.3
			c23.3,12.4,42.4,31.5,54.5,55.1c9.4-3.9,19.7-6.1,30.5-6.1c44.2,0,80,35.8,80,80S161.2,913,117,913z"/>
	</g>
</g>
</svg>
