<?xml version="1.0" encoding="utf-8"?>
<!-- Generator: Adobe Illustrator 18.1.1, SVG Export Plug-In . SVG Version: 6.00 Build 0)  -->
<svg version="1.1" id="Capa_1" xmlns="http://www.w3.org/2000/svg" xmlns:xlink="http://www.w3.org/1999/xlink" x="0px" y="0px"
	 viewBox="-191.8 0 1463.3 1440" enable-background="new -191.8 0 1463.3 1440" xml:space="preserve">
<g>
	<path d="M1043.6,180.7H36.5c-20.5,0-36.8,16.6-36.8,36.8v1007.1c0,20.4,16.6,36.8,36.8,36.8h1007.1c20.2,0,36.8-16.6,36.8-36.8
		V217.5C1080.4,197.3,1063.8,180.7,1043.6,180.7L1043.6,180.7z M1006.7,1187.8H73.3V254.3h933.5V1187.8z M1006.7,1187.8"/>
	<path d="M399.7,979.1c3.9,1.8,8.3,3.1,12.7,3.1c5.4,0,10.6-1.5,15.5-4.9l340.7-233.6c7.5-5.2,11.9-13.5,11.9-22.6
		c0-9.1-4.4-17.4-11.9-22.6L428,464.8c-8.3-5.6-19.2-6.4-28.3-1.8c-9,4.9-14.5,14.3-14.5,24.4v467.5
		C385.2,965,390.7,974.3,399.7,979.1L399.7,979.1z M399.7,979.1"/>
</g>
</svg>
